<svg width="24" height="24" viewBox="0 0 24 24" fill="none" xmlns="http://www.w3.org/2000/svg">
<path d="M7.03139 11.0612L6.68939 9.984H3.53368L3.19153 11.0612H1L4.16805 2.19116H6.05622L9.26227 11.0612H7.03139ZM5.11852 4.72512L4.02866 8.3747H6.18299L5.11852 4.72512Z" fill="#1F2127"/>
<path d="M9.50635 2.19116H11.5845V11.0612H9.50635V2.19116Z" fill="#1F2127"/>
<path d="M12.1448 9.24903C12.2381 8.81108 12.4029 8.39151 12.6326 8.00719C12.8324 7.68236 13.0827 7.39151 13.374 7.14546C13.6717 6.8986 13.9872 6.67417 14.318 6.47406C14.5798 6.32187 14.8227 6.17609 15.0467 6.0368C15.2532 5.90999 15.4502 5.76812 15.6359 5.61234C15.7963 5.47904 15.9315 5.31809 16.0351 5.1371C16.1341 4.95668 16.1843 4.75359 16.1808 4.54786C16.1808 4.19308 16.0837 3.93753 15.8894 3.78123C15.6834 3.62112 15.4279 3.53817 15.1671 3.54676C14.8704 3.53779 14.5818 3.6446 14.3624 3.84461C14.147 4.04317 14.0393 4.37476 14.0393 4.83939H11.999C11.9953 4.45342 12.0664 4.07039 12.2082 3.7114C12.3442 3.36986 12.554 3.06263 12.8226 2.81169C13.1088 2.54874 13.445 2.34619 13.8111 2.21614C14.2425 2.06547 14.6971 1.9925 15.154 2.00061C15.546 1.9988 15.9364 2.05214 16.3135 2.15907C16.6643 2.25644 16.9934 2.41988 17.2829 2.64061C17.5674 2.86311 17.7954 3.14966 17.9482 3.47694C18.1208 3.85651 18.2053 4.27024 18.1953 4.68711C18.1998 5.03974 18.1171 5.38803 17.9545 5.70096C17.7987 5.9986 17.6002 6.27181 17.3652 6.51191C17.1358 6.74599 16.8832 6.9562 16.6114 7.13929C16.3407 7.32101 16.0957 7.47518 15.8763 7.60176C15.5719 7.80455 15.3206 7.97987 15.1223 8.12774C14.9521 8.25078 14.7931 8.38855 14.6472 8.53946C14.538 8.65151 14.4537 8.78543 14.4 8.93237C14.351 9.08375 14.3275 9.24215 14.3303 9.40118H18.132V11.0612H11.9737C11.9629 10.4526 12.0202 9.84481 12.1448 9.24903Z" fill="#1F2127"/>
<path d="M18.5245 3.7488C18.8796 3.75603 19.2345 3.72415 19.5826 3.65373C19.8151 3.60958 20.0342 3.51198 20.2226 3.36864C20.3737 3.24323 20.484 3.07556 20.5394 2.88709C20.6027 2.66034 20.6326 2.42554 20.628 2.19016H22.4408V11.0612H20.35V5.19384H18.5245V3.7488Z" fill="#1F2127"/>
<path d="M1.08557 13.462H3.02413V22.332H1.08557V13.462Z" fill="#E91E63"/>
<path d="M10.1826 16.2194V22.3274H8.24379V21.4655C8.16424 21.6138 8.06156 21.7486 7.9396 21.8646C7.80926 21.9898 7.66216 22.0964 7.5025 22.1813C7.33135 22.2724 7.15071 22.3444 6.96389 22.3962C6.77432 22.4504 6.57813 22.4781 6.38098 22.4785C5.96459 22.4833 5.55202 22.399 5.17081 22.2314C4.81369 22.0742 4.49248 21.8458 4.22677 21.56C3.95826 21.2661 3.75143 20.9214 3.61848 20.5462C3.33128 19.7214 3.33128 18.8238 3.61848 17.999C3.75143 17.6238 3.95826 17.2791 4.22677 16.9852C4.49248 16.6995 4.81369 16.471 5.17081 16.3138C5.55214 16.1463 5.96483 16.0623 6.38125 16.0672C6.57841 16.0677 6.77459 16.0954 6.96417 16.1495C7.15188 16.2019 7.33271 16.2763 7.50278 16.3714C7.66282 16.4607 7.80988 16.5716 7.93987 16.7008C8.05868 16.8173 8.16101 16.9494 8.24402 17.0936V16.2194H10.1826ZM6.78652 20.832C6.99203 20.8352 7.1956 20.7919 7.38207 20.7054C7.55482 20.6246 7.70996 20.5105 7.83863 20.3697C7.9684 20.2253 8.06949 20.0576 8.13649 19.8754C8.20858 19.683 8.24499 19.479 8.2439 19.2735C8.24686 18.8728 8.10252 18.485 7.83836 18.1837C7.71108 18.0397 7.55571 17.9233 7.38179 17.8415C7.19436 17.758 6.99145 17.7149 6.78625 17.7149C6.58105 17.7149 6.37814 17.758 6.1907 17.8415C6.01683 17.9233 5.86145 18.0398 5.73413 18.1837C5.47009 18.4851 5.32583 18.8729 5.32871 19.2735C5.3275 19.479 5.36392 19.683 5.43617 19.8754C5.50313 20.0576 5.60413 20.2253 5.73386 20.3697C5.86258 20.5104 6.01772 20.6245 6.19043 20.7054C6.37705 20.792 6.58082 20.8353 6.78652 20.832Z" fill="#E91E63"/>
<path d="M12.5386 22.332H10.5996V13.462H12.5386V17.0983C12.6216 16.9541 12.7239 16.822 12.8427 16.7055C12.9741 16.5752 13.1233 16.4643 13.2859 16.3761C13.4566 16.2824 13.6373 16.208 13.8245 16.1543C14.016 16.0992 14.2144 16.0715 14.4137 16.0719C14.8301 16.0672 15.2427 16.1514 15.6239 16.319C15.981 16.4763 16.3024 16.7047 16.5678 16.9904C16.8364 17.2844 17.0431 17.6291 17.1764 18.0043C17.4632 18.8291 17.4632 19.7267 17.1764 20.5514C17.0431 20.9266 16.8364 21.2713 16.5678 21.5653C16.3024 21.851 15.981 22.0795 15.6239 22.2367C15.2427 22.4043 14.8301 22.4885 14.4137 22.4838C14.2144 22.4842 14.016 22.4565 13.8245 22.4014C13.6382 22.3482 13.4577 22.2762 13.2859 22.1866C13.1237 22.1028 12.9745 21.9961 12.8427 21.8698C12.7208 21.7538 12.6181 21.6191 12.5386 21.4707V22.332ZM14.0086 20.8366C14.21 20.8389 14.4092 20.7956 14.5915 20.71C14.7643 20.6291 14.9194 20.5151 15.0481 20.3743C15.1779 20.2299 15.2789 20.0622 15.3459 19.88C15.418 19.6876 15.4544 19.4836 15.4534 19.2781C15.4563 18.8774 15.312 18.4896 15.0478 18.1883C14.9205 18.0443 14.7652 17.9279 14.5912 17.8461C14.4091 17.7605 14.2099 17.7169 14.0086 17.7188C13.8011 17.7162 13.5956 17.7595 13.4067 17.8454C13.2304 17.926 13.0728 18.0425 12.9442 18.1876C12.6801 18.4889 12.5358 18.8767 12.5387 19.2774C12.5376 19.4829 12.574 19.6869 12.6461 19.8793C12.713 20.0615 12.8141 20.2293 12.944 20.3736C13.074 20.5155 13.2313 20.6296 13.4065 20.7093C13.5953 20.7957 13.8009 20.8392 14.0086 20.8366Z" fill="#E91E63"/>
<path d="M21.0348 18.7328C21.3049 18.8088 21.5583 18.8912 21.795 18.9799C22.0161 19.0605 22.2252 19.1714 22.416 19.3094C22.5917 19.4387 22.7367 19.6053 22.8404 19.7973C22.9535 20.0253 23.0079 20.2779 22.999 20.5322C23.0095 20.8522 22.9349 21.1691 22.7833 21.451C22.6391 21.7008 22.4343 21.91 22.1879 22.0593C21.9166 22.2226 21.6182 22.3362 21.3072 22.395C20.9544 22.4643 20.5957 22.4982 20.2362 22.4963C19.366 22.4963 18.6797 22.3062 18.1772 21.9261C17.6743 21.546 17.5247 21.0011 17.5247 20.2913H19.324C19.324 20.6126 19.415 20.8428 19.5965 20.982C19.8009 21.1285 20.0485 21.2021 20.2999 21.1911C20.5004 21.1997 20.6998 21.1537 20.8763 21.0581C20.9501 21.0127 21.0096 20.9478 21.0488 20.8707C21.0877 20.7936 21.1048 20.7071 21.0982 20.6209C21.1032 20.5173 21.0694 20.4156 21.0029 20.3358C20.9202 20.2499 20.8211 20.1811 20.7115 20.133C20.5475 20.0571 20.378 19.9936 20.2047 19.9429C19.9975 19.8795 19.7504 19.8014 19.4636 19.7085C19.2102 19.6324 18.9692 19.5501 18.7411 19.4615C18.5273 19.3804 18.3249 19.2718 18.1391 19.1382C17.9661 19.012 17.8255 18.8471 17.7275 18.6567C17.6183 18.4274 17.5662 18.1753 17.5752 17.9216C17.5752 17.2881 17.8181 16.8192 18.3039 16.5151C18.7897 16.211 19.4465 16.0588 20.2743 16.0586C20.6668 16.052 21.0577 16.1054 21.4339 16.217C21.7351 16.3053 22.0153 16.454 22.2575 16.6541C22.4685 16.8337 22.6352 17.0592 22.7456 17.3132C22.8556 17.5692 22.9119 17.8453 22.9104 18.1241H20.9967C21.0103 17.9097 20.9396 17.6984 20.8005 17.5349C20.72 17.4601 20.6252 17.4029 20.5214 17.3669C20.4177 17.3309 20.3077 17.3169 20.1985 17.3258C20.0201 17.3214 19.8444 17.3676 19.6917 17.4589C19.6213 17.5014 19.5646 17.5622 19.5265 17.6348C19.4884 17.7074 19.4709 17.7889 19.476 17.8707C19.4725 17.9714 19.509 18.0693 19.5774 18.1432C19.6629 18.2273 19.7644 18.294 19.8751 18.3396C20.0341 18.409 20.1969 18.4682 20.3633 18.517C20.5572 18.5766 20.781 18.6485 21.0348 18.7328Z" fill="#E91E63"/>
</svg>
